HIERARCHY
ROOT hip
{
	OFFSET 0.000000 0.000000 0.000000 
	CHANNELS 6 Xposition Yposition Zposition Xrotation Zrotation Yrotation
	JOINT abdomen
	{
		OFFSET 0.000000 3.402643 0.000000 
		CHANNELS 3 Xrotation Zrotation Yrotation
		JOINT chest
		{
			OFFSET 0.000000 8.438565 -0.680529 
			CHANNELS 3 Xrotation Zrotation Yrotation
			JOINT neck
			{
				OFFSET 0.000000 10.207942 -0.272212 
				CHANNELS 3 Xrotation Zrotation Yrotation
				JOINT head
				{
					OFFSET 0.000000 3.130431 0.000000 
					CHANNELS 3 Xrotation Zrotation Yrotation
					End Site
					{
						OFFSET 0.000000 3.130435 0.000000 
					}
				}
			}
			JOINT lCollar
			{
				OFFSET 3.470700 6.669187 -0.816635 
				CHANNELS 3 Yrotation Zrotation Xrotation
				JOINT lShldr
				{
					OFFSET 3.198488 0.000000 0.000000 
					CHANNELS 3 Zrotation Yrotation Xrotation
					JOINT lForeArm
					{
						OFFSET 10.139888 0.000000 0.000000 
						CHANNELS 3 Yrotation Zrotation Xrotation
						JOINT lHand
						{
							OFFSET 8.370511 0.000000 0.000000 
							CHANNELS 3 Zrotation Yrotation Xrotation
							End Site
							{
								OFFSET 4.083176 0.000000 0.000000 
							}
						}
					}
				}
			}
			JOINT rCollar
			{
				OFFSET -3.470700 6.669187 -0.816635 
				CHANNELS 3 Yrotation Zrotation Xrotation
				JOINT rShldr
				{
					OFFSET -3.198488 0.000000 0.000000 
					CHANNELS 3 Zrotation Yrotation Xrotation
					JOINT rForeArm
					{
						OFFSET -10.139888 0.000000 0.000000 
						CHANNELS 3 Yrotation Zrotation Xrotation
						JOINT rHand
						{
							OFFSET -8.370511 0.000000 0.000000 
							CHANNELS 3 Zrotation Yrotation Xrotation
							End Site
							{
								OFFSET -4.083176 0.000000 0.000000 
							}
						}
					}
				}
			}
		}
	}
	JOINT lThigh
	{
		OFFSET 5.308129 -1.633274 1.361059 
		CHANNELS 3 Xrotation Zrotation Yrotation
		JOINT lShin
		{
			OFFSET -2.041588 -20.007561 0.000000 
			CHANNELS 3 Xrotation Zrotation Yrotation
			JOINT lFoot
			{
				OFFSET 0.000000 -19.190928 -1.224953 
				CHANNELS 3 Xrotation Yrotation Zrotation
				End Site
				{
					OFFSET 0.000000 -2.449906 4.627600 
				}
			}
		}
	}
	JOINT rThigh
	{
		OFFSET -5.308129 -1.633274 1.361059 
		CHANNELS 3 Xrotation Zrotation Yrotation
		JOINT rShin
		{
			OFFSET 2.041588 -20.007561 0.000000 
			CHANNELS 3 Xrotation Zrotation Yrotation
			JOINT rFoot
			{
				OFFSET 0.000000 -19.190928 -1.224953 
				CHANNELS 3 Xrotation Yrotation Zrotation
				End Site
				{
					OFFSET 0.000000 -2.449906 4.627600 
				}
			}
		}
	}
}
MOTION
Frames: 16
Frame Time: 0.016667
0.148161 53.786850 0.110877 -10.540246 0.663937 -1.113320 29.478052 -2.052047 -0.236100 1.124288 2.401659 -2.061392 -1.392511 1.931962 -0.025395 14.999300 -3.081961 7.061010 -11.934348 -14.492481 -0.772634 -54.949615 14.138616 -20.016466 -26.175364 -5.000000 33.836483 -25.066256 0.928020 19.173401 11.286899 16.862226 -0.905701 52.121132 -6.549658 -11.949285 22.483860 5.000000 31.236269 22.139502 -9.961551 0.105066 19.731855 12.497099 0.773225 0.370636 -5.706168 -0.309854 -7.130340 13.234596 -4.833860 19.185610 -9.440543 2.638443 1.283025 1.069362 0.012266 -4.947871 -19.185228 7.668155 
0.143057 53.786850 0.102369 -10.541005 0.702992 -1.113317 29.487822 -2.097593 -0.254402 1.183241 2.421205 -2.071172 -1.529556 1.930502 -0.035046 14.917183 -3.101148 7.090261 -11.865990 -14.492492 -0.772636 -54.939426 14.059506 -19.987616 -26.216557 -5.000000 33.956116 -24.973919 0.814229 19.145500 11.228306 16.862236 -0.905703 52.153801 -6.415826 -11.889315 22.517229 5.000000 31.176620 22.217112 -10.046556 0.066754 19.725868 12.469826 0.785494 0.351268 -5.697485 -0.298515 -7.160136 13.192693 -4.850080 19.174185 -9.449079 2.566464 1.273499 1.049703 0.031482 -4.980857 -19.103254 7.654428 
0.137951 53.786850 0.092837 -10.550840 0.712758 -1.103552 29.507198 -2.106385 -0.258653 1.192593 2.421195 -2.090694 -1.597920 1.940158 -0.036506 14.866617 -3.110773 7.100011 -11.856224 -14.492492 -0.772636 -54.963432 14.056016 -20.015762 -26.276363 -5.000000 34.044197 -24.996469 0.860924 19.107660 11.245252 16.883638 -0.897546 52.175419 -6.358634 -11.857645 22.551342 5.000000 31.140465 22.281416 -10.044529 0.026084 19.721390 12.476638 0.777963 0.360926 -5.696556 -0.279875 -7.189655 13.131315 -4.885986 19.216351 -9.450705 2.576181 1.228236 1.043214 0.019559 -4.966290 -19.104786 7.678751 
0.132847 53.786842 0.082627 -10.569758 0.693235 -1.084023 29.517078 -2.088449 -0.250973 1.182237 2.411412 -2.129741 -1.617472 1.969125 -0.040885 14.847084 -3.110773 7.100011 -11.895013 -14.472981 -0.771627 -55.013287 14.105721 -20.065252 -26.367096 -5.000000 34.089268 -25.090397 1.015013 19.075949 11.314092 16.912891 -0.899059 52.202850 -6.354377 -11.847262 22.586203 5.000000 31.133303 22.350492 -9.995238 -0.027914 19.708809 12.495098 0.742599 0.380220 -5.675085 -0.242887 -7.139480 13.148153 -4.904601 19.238207 -9.423350 2.612738 1.205138 1.040420 0.008786 -4.973269 -19.177309 7.698864 
0.128424 53.786503 0.072411 -10.579223 0.683474 -1.074259 29.536570 -2.079306 -0.247543 1.172297 2.401640 -2.149265 -1.646453 1.999552 -0.035615 14.817257 -3.110707 7.109764 -11.921439 -14.445739 -0.758426 -55.069294 14.132850 -20.107243 -26.428141 -5.000000 34.148552 -25.174831 1.133197 19.047297 11.372847 16.922642 -0.899564 52.227783 -6.338236 -11.821589 22.626394 5.000000 31.106075 22.404825 -9.966028 -0.057216 19.716789 12.519058 0.727018 0.399580 -5.693458 -0.254082 -7.139308 13.132161 -4.933362 19.231754 -9.409535 2.654788 1.178120 1.041903 -0.002309 -4.971185 -19.223576 7.699461 
0.126722 53.784801 0.062199 -10.559808 0.683471 -1.084024 29.526487 -2.072144 -0.244000 1.162768 2.391877 -2.139501 -1.705393 2.007748 -0.046725 14.795073 -3.110375 7.158517 -11.891742 -14.416486 -0.756918 -55.122135 14.123151 -20.100359 -26.435099 -5.000000 34.255882 -25.201195 1.113749 18.963184 11.353154 16.912891 -0.899059 52.302811 -6.282238 -11.748308 22.665869 5.000000 31.052631 22.436546 -9.975621 -0.014062 19.676664 12.528060 0.737830 0.429780 -5.720900 -0.276728 -7.164341 13.117257 -4.906669 19.196793 -9.411791 2.685223 1.198926 1.062595 -0.001509 -4.922616 -19.215826 7.634942 
0.125023 53.783104 0.051991 -10.540321 0.673703 -1.103554 29.516249 -2.073773 -0.244707 1.153239 2.382114 -2.119972 -1.754228 2.017403 -0.048184 14.763654 -3.110108 7.198052 -11.871811 -14.387230 -0.755409 -55.175877 14.105463 -20.101372 -26.441816 -5.000000 34.359520 -25.230608 1.081643 18.874285 11.333463 16.903141 -0.898555 52.369560 -6.234361 -11.682565 22.702684 5.000000 31.007851 22.478184 -9.985273 0.027389 19.636755 12.537164 0.758620 0.449171 -5.739566 -0.316224 -7.140601 13.153726 -4.848498 19.175140 -9.410705 2.695280 1.184746 1.048905 0.007776 -4.898404 -19.174500 7.593879 
0.123322 53.782761 0.045868 -10.540207 0.673705 -1.093789 29.506592 -2.088961 -0.229497 1.163478 2.362589 -2.119975 -1.812517 2.067142 -0.045834 14.747993 -3.100752 7.148768 -11.871677 -14.377477 -0.754906 -55.202145 14.089836 -20.098360 -26.444996 -5.000000 34.433697 -25.227125 1.061644 18.882328 11.277941 16.910984 -0.908222 52.414249 -6.191226 -11.676767 22.712156 5.000000 31.031561 22.491692 -9.973224 0.070907 19.618675 12.528629 0.755497 0.458785 -5.718898 -0.297869 -7.142187 13.138175 -4.844990 19.152918 -9.390174 2.679901 1.198782 1.033602 -0.020831 -4.943742 -19.140751 7.568832 
0.121619 53.782764 0.040763 -10.540160 0.683474 -1.074259 29.497248 -2.099905 -0.223076 1.183483 2.343063 -2.110212 -1.880928 2.125077 -0.054593 14.722927 -3.101279 7.070759 -11.871677 -14.377477 -0.754906 -55.220737 14.061529 -20.106359 -26.442905 -5.000000 34.499443 -25.223484 1.045803 18.899382 11.219671 16.930496 -0.909232 52.441196 -6.142493 -11.687345 22.731058 5.000000 31.078966 22.496874 -9.966444 0.105141 19.603516 12.534837 0.767579 0.468450 -5.718248 -0.308492 -7.132694 13.068503 -4.888592 19.135880 -9.381003 2.672675 1.210879 1.035281 -0.049623 -4.989747 -19.139072 7.511530 
0.119918 53.782764 0.036338 -10.549927 0.683474 -1.074259 29.497158 -2.114740 -0.208687 1.193485 2.333300 -2.110213 -1.900478 2.144388 -0.057513 14.696417 -3.091783 7.041507 -11.891340 -14.387230 -0.755409 -55.257488 14.073652 -20.146940 -26.428528 -5.000000 34.576653 -25.179157 0.960538 18.919321 11.219834 16.940247 -0.909736 52.472782 -6.132901 -11.718764 22.741188 5.000000 31.128830 22.488613 -9.926683 0.113090 19.618887 12.547769 0.770107 0.478094 -5.727086 -0.299471 -7.139616 13.075263 -4.884166 19.153698 -9.390548 2.660005 1.203807 1.029040 -0.069320 -4.971581 -19.079859 7.548218 
0.118216 53.782761 0.032935 -10.589034 0.673705 -1.093789 29.496975 -2.114387 -0.209508 1.193249 2.343063 -2.090680 -1.851604 2.096110 -0.050214 14.658705 -3.072270 7.060486 -11.930537 -14.396982 -0.755912 -55.307751 14.110969 -20.242081 -26.365236 -5.000000 34.707138 -25.075247 0.766832 18.945515 11.307725 16.940231 -0.909733 52.492157 -6.185968 -11.776307 22.751270 5.000000 31.178680 22.446987 -9.871923 0.090489 19.642962 12.545501 0.751686 0.486743 -5.735852 -0.280710 -7.086985 13.127459 -4.888617 19.189062 -9.384187 2.662241 1.207705 1.023174 -0.020317 -4.927810 -19.106974 7.619209 
0.116516 53.782761 0.029531 -10.628327 0.673701 -1.113319 29.496786 -2.114034 -0.210329 1.202777 2.352826 -2.071148 -1.803081 2.046371 -0.052564 14.620482 -3.052693 7.089743 -11.969867 -14.416486 -0.756918 -55.357201 14.156193 -20.331785 -26.301840 -5.000000 34.834034 -24.968357 0.585554 18.975832 11.382771 16.932394 -0.900068 52.512817 -6.244916 -11.841558 22.761309 5.000000 31.228510 22.403746 -9.820923 0.076698 19.687349 12.548639 0.743072 0.487736 -5.745567 -0.280563 -7.060338 13.218757 -4.871663 19.238710 -9.394122 2.657990 1.176149 1.029859 -0.021812 -4.869682 -19.027794 7.694921 
0.116517 53.781063 0.022721 -10.627725 0.654178 -1.093790 29.507671 -2.092512 -0.232446 1.183815 2.362608 -2.071163 -1.842144 2.046371 -0.052564 14.632665 -3.033311 7.089746 -11.950202 -14.406734 -0.756415 -55.427868 14.165084 -20.360891 -26.300282 -5.000000 34.817524 -25.065849 0.629400 19.044682 11.382612 16.922644 -0.899564 52.547405 -6.226936 -11.815766 22.735809 5.000000 31.259426 22.321390 -9.801186 0.120768 19.653843 12.565199 0.746678 0.526336 -5.742824 -0.332819 -7.018671 13.186139 -4.879394 19.234247 -9.382190 2.641713 1.177943 1.042102 -0.002316 -4.845707 -19.119722 7.710308 
0.116518 53.779362 0.015910 -10.636973 0.644420 -1.064496 29.508459 -2.075233 -0.245774 1.174625 2.372390 -2.071178 -1.890972 2.046371 -0.052564 14.654608 -3.013930 7.089747 -11.940303 -14.396982 -0.755912 -55.497635 14.181971 -20.384583 -26.290070 -5.000000 34.804401 -25.172400 0.680832 19.122160 11.372684 16.912891 -0.899059 52.582001 -6.208991 -11.791016 22.701607 5.000000 31.295650 22.248997 -9.772358 0.165213 19.634718 12.595143 0.733106 0.556638 -5.750007 -0.354801 -7.000315 13.101555 -4.898656 19.226830 -9.353806 2.618964 1.168919 1.052443 -0.012605 -4.832422 -19.149853 7.722469 
0.117540 53.779701 0.010126 -10.647329 0.663944 -1.084025 29.517492 -2.125305 -0.256128 1.174802 2.382162 -2.051654 -1.930053 2.065682 -0.055484 14.656152 -3.014121 7.060490 -11.933125 -14.404714 -0.765670 -55.524986 14.197216 -20.422945 -26.305811 -5.000000 34.784782 -25.307781 0.786531 19.148561 11.372684 16.912891 -0.899059 52.604664 -6.173519 -11.754696 22.655382 5.000000 31.316841 22.261127 -9.763866 0.219341 19.631269 12.563424 0.736008 0.585456 -5.727314 -0.347928 -7.046641 13.097323 -4.906144 19.234638 -9.382373 2.631765 1.180522 1.054138 -0.012104 -4.835242 -19.139084 7.692435 
0.119242 53.781399 0.005022 -10.668392 0.712751 -1.132846 29.515774 -2.211756 -0.260373 1.194333 2.382162 -2.032123 -1.959369 2.084994 -0.058403 14.660427 -3.004808 7.001468 -11.923494 -14.414469 -0.766172 -55.525803 14.206575 -20.465050 -26.316437 -5.000000 34.756775 -25.477808 0.933567 19.140291 11.372847 16.922642 -0.899564 52.617870 -6.132304 -11.724277 22.594444 5.000000 31.331600 22.345716 -9.757309 0.238669 19.626104 12.478549 0.744130 0.604559 -5.685454 -0.311171 -7.134186 13.133822 -4.891197 19.217342 -9.461916 2.673419 1.205625 1.070000 -0.010959 -4.835947 -19.112717 7.650537 
